Coordinates
version=1
nRows=25
nColumns=33
inDegrees=yes

Units are S.I. units (second, meters, Newtons, ...)
Angles are in degrees.

endheader
time	ground_thorax_rot_x	ground_thorax_rot_y	ground_thorax_rot_z	ground_thorax_tx	ground_thorax_ty	ground_thorax_tz	clav_prot_r	clav_elev_r	scapula_abduction_r	scapula_elevation_r	scapula_upward_rot_r	scapula_winging_r	shoulder_elv_r	plane_of_elev_r	axial_rot_r	elbow_flexion_r	pro_sup_r	wrist_flex_r	wrist_dev_r	clav_prot_l	clav_elev_l	scapula_abduction_l	scapula_elevation_l	scapula_upward_rot_l	scapula_winging_l	shoulder_elv_l	plane_of_elev_l	axial_rot_l	elbow_flexion_l	pro_sup_l	wrist_flex_l	wrist_dev_l	
3.5000	30.779818	25.991853	35.469965	-100.938669	868.168482	-44.131356	12.457640	34.050870	28.801048	45.000000	-45.000000	2069.221867	1695.305813	159.763932	28.703130	346.879079	44.852563	5.163995	4.222939	-5.167644	-45.000000	-41.450947	45.000000	-45.000000	6225.721833	-5679.633034	25.448906	26.751473	710.471878	48.251525	11.863813	-24.148631	
3.5100	30.692461	26.016213	35.642082	-101.006958	867.385636	-44.023112	12.477452	34.029517	28.725106	45.000000	-45.000000	2069.294595	1695.276774	159.814305	28.832782	346.851480	44.937892	5.160451	4.244970	-5.137636	-45.000000	-41.396460	45.000000	-45.000000	6225.769871	-5679.746057	25.466166	26.773640	710.406497	47.187210	12.093047	-24.019014	
3.5200	30.579503	26.081989	35.834764	-101.022526	866.602986	-43.916774	12.593547	33.987212	28.581622	45.000000	-45.000000	2069.382309	1695.259954	159.841815	28.924816	346.835955	45.036090	5.189331	4.335200	-5.089485	-45.000000	-41.404665	45.000000	-45.000000	6225.827747	-5679.870229	25.487965	26.800394	710.341391	46.176653	12.391972	-23.895519	
3.5300	30.492348	26.132345	36.001987	-100.914964	865.812075	-43.814242	12.641662	33.968260	28.500395	45.000000	-45.000000	2069.450558	1695.219738	159.873211	28.968304	346.821591	45.176810	5.191114	4.384040	-5.088338	-45.000000	-41.372320	45.000000	-45.000000	6225.849355	-5679.965697	25.519719	26.931075	710.277348	45.279751	12.618646	-23.770630	
3.5400	30.409199	26.194395	36.168252	-100.685385	865.023945	-43.715768	12.677649	33.956549	28.428827	45.000000	-45.000000	2069.510180	1695.173259	159.888030	28.959389	346.812461	45.363605	5.189502	4.428928	-5.112612	-45.000000	-41.333407	45.000000	-45.000000	6225.843992	-5680.039020	25.553434	27.122847	710.210177	44.498800	12.806946	-23.651663	
3.5500	30.340255	26.259322	36.320818	-100.324266	864.249109	-43.621426	12.707589	33.953406	28.388177	45.000000	-45.000000	2069.564433	1695.116798	159.897728	28.899174	346.808488	45.610292	5.174648	4.469229	-5.146092	-45.000000	-41.293015	45.000000	-45.000000	6225.825052	-5680.103276	25.601897	27.378130	710.152109	43.839434	12.976875	-23.535427	
3.5600	30.275694	26.338447	36.472831	-99.838108	863.502483	-43.530240	12.731392	33.953541	28.359714	45.000000	-45.000000	2069.613629	1695.059350	159.893027	28.793398	346.811659	45.934120	5.154572	4.506679	-5.187325	-45.000000	-41.253727	45.000000	-45.000000	6225.783882	-5680.151222	25.651913	27.671273	710.093643	43.286248	13.116397	-23.423858	
3.5700	30.218655	26.421292	36.621723	-99.236896	862.799270	-43.440391	12.764038	33.955825	28.362853	45.000000	-45.000000	2069.668387	1694.995714	159.890578	28.650505	346.829861	46.360077	5.126699	4.549972	-5.212367	-45.000000	-41.226149	45.000000	-45.000000	6225.749157	-5680.198721	25.714949	27.993623	710.050726	42.821962	13.264238	-23.308959	
3.5800	30.161722	26.513459	36.778879	-98.523768	862.150677	-43.349546	12.787912	33.959447	28.382127	45.000000	-45.000000	2069.720030	1694.934109	159.876126	28.474022	346.862137	46.933698	5.098193	4.593540	-5.236987	-45.000000	-41.201024	45.000000	-45.000000	6225.699462	-5680.229740	25.770620	28.340098	710.013056	42.423084	13.383273	-23.197496	
3.5900	30.114519	26.600563	36.929400	-97.695714	861.563264	-43.255367	12.809184	33.966758	28.438661	45.000000	-45.000000	2069.775767	1694.865248	159.866066	28.262032	346.917781	47.733982	5.069537	4.655138	-5.246739	-45.000000	-41.182412	45.000000	-45.000000	6225.657436	-5680.263879	25.843331	28.719241	709.992086	42.082496	13.517665	-23.079708	
3.6000	30.067341	26.694703	37.087433	-96.744955	861.038073	-43.156083	12.818563	33.972389	28.501527	45.000000	-45.000000	2069.832234	1694.801696	159.840218	28.001342	347.006232	48.884552	5.059757	4.748119	-5.255284	-45.000000	-41.166694	45.000000	-45.000000	6225.599051	-5680.289209	25.913957	29.128759	709.975107	41.786547	13.637891	-22.965500	
3.6100	30.023671	26.787114	37.249300	-95.661144	860.570634	-43.051005	12.814195	33.978275	28.587993	45.000000	-45.000000	2069.896958	1694.735075	159.810068	27.670752	347.156106	50.628860	5.086424	4.898085	-5.253248	-45.000000	-41.154819	45.000000	-45.000000	6225.540480	-5680.318591	25.998589	29.572529	709.971241	41.538631	13.769626	-22.845811	
3.6200	29.971790	26.892292	37.430124	-94.433223	860.150745	-42.940663	12.799741	33.980994	28.669953	45.000000	-45.000000	2069.963273	1694.674447	159.754265	27.242156	347.392484	53.253116	5.184600	5.132789	-5.253494	-45.000000	-41.149273	45.000000	-45.000000	6225.458433	-5680.341938	26.078275	30.048973	709.971001	41.330714	13.884147	-22.731150	
3.6300	29.916656	27.001410	37.620804	-93.051103	859.763285	-42.826554	12.784179	33.988528	28.769711	45.000000	-45.000000	2070.033132	1694.600844	159.671446	26.634459	347.810657	57.600820	5.445135	5.534647	-5.253290	-45.000000	-41.144146	45.000000	-45.000000	6225.365874	-5680.368228	26.175913	30.564156	709.974212	41.165023	14.009527	-22.606765	
3.6400	29.850824	27.120914	37.833478	-91.506722	859.389239	-42.710527	12.774355	34.000476	28.873576	45.000000	-45.000000	2070.103522	1694.514551	159.540200	25.796972	348.463996	64.149876	5.929040	6.150095	-5.261805	-45.000000	-41.134910	45.000000	-45.000000	6225.251740	-5680.387706	26.277899	31.115631	709.972975	41.034865	14.125865	-22.477230	
3.6500	29.775162	27.244076	38.067168	-89.794637	859.007133	-42.593954	12.795996	34.027981	28.997541	45.000000	-45.000000	2070.172115	1694.382932	159.293927	24.342465	349.750899	76.538554	7.062070	7.315522	-5.285542	-45.000000	-41.114468	45.000000	-45.000000	6225.122959	-5680.395638	26.391173	31.724335	709.958213	40.913125	14.249697	-22.320788	
3.6600	29.686414	27.373519	38.327222	-87.911876	858.594624	-42.477100	12.832570	34.063645	29.126169	45.000000	-45.000000	2070.240665	1694.220522	158.943468	22.389825	351.526620	93.387092	8.703492	8.914296	-5.321717	-45.000000	-41.082481	45.000000	-45.000000	6224.983277	-5680.399659	26.511428	32.352115	709.936964	40.818417	14.369933	-22.153028	
3.6700	29.588337	27.505803	38.609608	-85.857977	858.129642	-42.358689	12.892998	34.113871	29.270736	45.000000	-45.000000	2070.307060	1694.027825	158.516207	20.063593	353.659678	113.440203	10.728654	10.830492	-5.377898	-45.000000	-41.033216	45.000000	-45.000000	6224.837426	-5680.404305	26.643879	32.997571	709.909620	40.766286	14.493261	-21.971715	
3.6800	29.477450	27.647937	38.918760	-83.634772	857.591553	-42.236099	12.950841	34.166461	29.416223	45.000000	-45.000000	2070.378675	1693.840981	158.109936	17.896035	355.596674	131.558546	12.561414	12.592071	-5.447330	-45.000000	-40.974959	45.000000	-45.000000	6224.686264	-5680.420032	26.780221	33.623591	709.886496	40.795919	14.606763	-21.794022	
3.6900	29.351182	27.802869	39.257335	-81.246144	856.961421	-42.105766	13.026667	34.226763	29.568012	45.000000	-45.000000	2070.455336	1693.661942	157.747452	15.961892	357.274200	147.184114	14.140905	14.131437	-5.542653	-45.000000	-40.911335	45.000000	-45.000000	6224.520336	-5680.439215	26.907867	34.255712	709.864909	40.890853	14.705255	-21.607384	
3.7000	29.202503	27.975312	39.628498	-78.697367	856.222505	-41.964080	13.083284	34.277631	29.705593	45.000000	-45.000000	2070.549956	1693.520498	157.502876	14.661792	358.283019	156.550355	15.031116	15.101824	-5.640383	-45.000000	-40.851027	45.000000	-45.000000	6224.347368	-5680.473600	27.027591	34.851518	709.855955	41.065396	14.787153	-21.422540	
3.7100	29.033827	28.161223	40.031186	-75.994636	855.359767	-41.807866	13.144987	34.329676	29.840491	45.000000	-45.000000	2070.657504	1693.405754	157.364381	13.905673	358.738271	160.783491	15.351279	15.589101	-5.755861	-45.000000	-40.784747	45.000000	-45.000000	6224.160042	-5680.514098	27.132662	35.434225	709.851110	41.282200	14.850707	-21.226031	
3.7200	28.844506	28.356231	40.463284	-73.145131	854.360505	-41.635255	13.203799	34.377844	29.968674	45.000000	-45.000000	2070.785111	1693.312733	157.318088	13.601700	358.738763	160.835366	15.195105	15.679592	-5.887593	-45.000000	-40.709522	45.000000	-45.000000	6223.960345	-5680.562090	27.220913	35.990222	709.851186	41.513211	14.897478	-21.014169	
3.7300	28.638802	28.554002	40.921742	-70.157312	853.214466	-41.445950	13.284026	34.433446	30.102318	45.000000	-45.000000	2070.927655	1693.212441	157.287532	13.308454	358.741409	160.966949	15.042729	15.756508	-6.053967	-45.000000	-40.614922	45.000000	-45.000000	6223.744000	-5680.610852	27.287164	36.533623	709.846683	41.707992	14.929735	-20.773491	
3.7400	28.415371	28.753776	41.404708	-67.041838	851.915061	-41.241703	13.356298	34.485371	30.226825	45.000000	-45.000000	2071.089742	1693.109461	157.263764	13.012068	358.748575	161.184509	14.895020	15.827265	-6.235463	-45.000000	-40.503204	45.000000	-45.000000	6223.523205	-5680.673711	27.338671	37.019275	709.843218	41.872254	14.950685	-20.516076	
